{
  "accessors": [
    {
      "bufferView": 0,
      "componentType": 5126,
      "count": 65535,
      "max": [
        19.74455451965332,
        -0.19603145122528076,
        57.6898307800293
      ],
      "min": [
        -17.633577346801758,
        -12.532720565795898,
        27.450252532958984
      ],
      "type": "VEC3"
    },
    {
      "bufferView": 0,
      "byteOffset": 786420,
      "componentType": 5126,
      "count": 65535,
      "max": [
        0.9999685287475586,
        1.0,
        0.3152441680431366
      ],
      "min": [
        -0.9999369978904724,
        -0.9992135763168335,
        -1.0
      ],
      "type": "VEC3"
    },
    {
      "bufferView": 1,
      "componentType": 5126,
      "count": 65535,
      "max": [
        0.9960784316062927,
        0.9803921580314636,
        0.9725490212440491,
        1.0
      ],
      "min": [
        0.05882352963089943,
        0.10196078568696976,
        0.0784313753247261,
        1.0
      ],
      "type": "VEC4"
    },
    {
      "bufferView": 0,
      "byteOffset": 1572840,
      "componentType": 5126,
      "count": 65535,
      "max": [
        10.923871040344238,
        1.3989238739013672,
        34.05930709838867
      ],
      "min": [
        -2.943199872970581,
        -4.247992992401123,
        7.613399982452393
      ],
      "type": "VEC3"
    },
    {
      "bufferView": 0,
      "byteOffset": 2359260,
      "componentType": 5126,
      "count": 65535,
      "max": [
        0.9661870002746582,
        0.9985857605934143,
        0.2934383153915405
      ],
      "min": [
        -0.9998740553855896,
        -0.9999685287475586,
        -0.9999685287475586
      ],
      "type": "VEC3"
    },
    {
      "bufferView": 1,
      "byteOffset": 1048560,
      "componentType": 5126,
      "count": 65535,
      "max": [
        0.9803921580314636,
        0.9764705896377563,
        0.9607843160629272,
        1.0
      ],
      "min": [
        0.08627451211214066,
        0.12941177189350128,
        0.11764705926179886,
        1.0
      ],
      "type": "VEC4"
    },
    {
      "bufferView": 0,
      "byteOffset": 3145680,
      "componentType": 5126,
      "count": 65535,
      "max": [
        3.665855884552002,
        1.3989238739013672,
        10.916313171386719
      ],
      "min": [
        -2.943199872970581,
        0.7693362236022949,
        7.613399982452393
      ],
      "type": "VEC3"
    },
    {
      "bufferView": 0,
      "byteOffset": 3932100,
      "componentType": 5126,
      "count": 65535,
      "max": [
        0.9848406314849854,
        0.958357572555542,
        0.28600266575813293
      ],
      "min": [
        -0.9996852278709412,
        -1.0,
        -0.9979591369628906
      ],
      "type": "VEC3"
    },
    {
      "bufferView": 1,
      "byteOffset": 2097120,
      "componentType": 5126,
      "count": 65535,
      "max": [
        0.729411780834198,
        0.7607843279838562,
        0.7529411911964417,
        1.0
      ],
      "min": [
        0.07058823853731155,
        0.10980392247438431,
        0.10588235408067703,
        1.0
      ],
      "type": "VEC4"
    },
    {
      "bufferView": 0,
      "byteOffset": 4718520,
      "componentType": 5126,
      "count": 65535,
      "max": [
        1.802922248840332,
        1.802505612373352,
        14.222455978393555
      ],
      "min": [
        -5.400205612182617,
        -2.8887293338775635,
        4.520349025726318
      ],
      "type": "VEC3"
    },
    {
      "bufferView": 0,
      "byteOffset": 5504940,
      "componentType": 5126,
      "count": 65535,
      "max": [
        0.9999369978904724,
        0.9647359251976013,
        0.428396075963974
      ],
      "min": [
        -0.9957130551338196,
        -1.0,
        -0.9979591369628906
      ],
      "type": "VEC3"
    },
    {
      "bufferView": 1,
      "byteOffset": 3145680,
      "componentType": 5126,
      "count": 65535,
      "max": [
        0.6274510025978088,
        0.6078431606292725,
        0.6117647290229797,
        1.0
      ],
      "min": [
        0.04313725605607033,
        0.10980392247438431,
        0.09803921729326248,
        1.0
      ],
      "type": "VEC4"
    },
    {
      "bufferView": 0,
      "byteOffset": 6291360,
      "componentType": 5126,
      "count": 65535,
      "max": [
        2.012784719467163,
        1.7992769479751587,
        14.222455978393555
      ],
      "min": [
        -6.1201958656311035,
        0.5142725110054016,
        4.575235843658447
      ],
      "type": "VEC3"
    },
    {
      "bufferView": 0,
      "byteOffset": 7077780,
      "componentType": 5126,
      "count": 65535,
      "max": [
        0.990380585193634,
        0.8808969259262085,
        0.39570537209510803
      ],
      "min": [
        -0.9999685287475586,
        -1.0,
        -0.9922510385513306
      ],
      "type": "VEC3"
    },
    {
      "bufferView": 1,
      "byteOffset": 4194240,
      "componentType": 5126,
      "count": 65535,
      "max": [
        0.5921568870544434,
        0.6352941393852234,
        0.6392157077789307,
        1.0
      ],
      "min": [
        0.0784313753247261,
        0.10588235408067703,
        0.10980392247438431,
        1.0
      ],
      "type": "VEC4"
    },
    {
      "bufferView": 0,
      "byteOffset": 7864200,
      "componentType": 5126,
      "count": 65535,
      "max": [
        5.151036739349365,
        1.5119267702102661,
        20.834739685058594
      ],
      "min": [
        -8.480341911315918,
        -0.36715012788772583,
        6.790092945098877
      ],
      "type": "VEC3"
    },
    {
      "bufferView": 0,
      "byteOffset": 8650620,
      "componentType": 5126,
      "count": 65535,
      "max": [
        0.999087929725647,
        0.9906604886054993,
        0.323668509721756
      ],
      "min": [
        -0.9899146556854248,
        -1.0,
        -0.9998740553855896
      ],
      "type": "VEC3"
    },
    {
      "bufferView": 1,
      "byteOffset": 5242800,
      "componentType": 5126,
      "count": 65535,
      "max": [
        0.6235294342041016,
        0.6431372761726379,
        0.6470588445663452,
        1.0
      ],
      "min": [
        0.07058823853731155,
        0.11372549086809158,
        0.10588235408067703,
        1.0
      ],
      "type": "VEC4"
    },
    {
      "bufferView": 0,
      "byteOffset": 9437040,
      "componentType": 5126,
      "count": 65535,
      "max": [
        -2.9464285373687744,
        0.13006263971328735,
        40.671592712402344
      ],
      "min": [
        -17.29779815673828,
        -12.190483093261719,
        17.53182601928711
      ],
      "type": "VEC3"
    },
    {
      "bufferView": 0,
      "byteOffset": 10223460,
      "componentType": 5126,
      "count": 65535,
      "max": [
        1.0,
        1.0,
        0.3166535496711731
      ],
      "min": [
        -0.9959307312965393,
        -0.9999369978904724,
        -1.0
      ],
      "type": "VEC3"
    },
    {
      "bufferView": 1,
      "byteOffset": 6291360,
      "componentType": 5126,
      "count": 65535,
      "max": [
        1.0,
        0.9803921580314636,
        0.9764705896377563,
        1.0
      ],
      "min": [
        0.05098039284348488,
        0.09019608050584793,
        0.07450980693101883,
        1.0
      ],
      "type": "VEC4"
    },
    {
      "bufferView": 0,
      "byteOffset": 11009880,
      "componentType": 5126,
      "count": 65535,
      "max": [
        1.8448947668075562,
        -0.4058939814567566,
        40.671592712402344
      ],
      "min": [
        -14.934422492980957,
        -8.66479206085205,
        14.228913307189941
      ],
      "type": "VEC3"
    },
    {
      "bufferView": 0,
      "byteOffset": 11796300,
      "componentType": 5126,
      "count": 65535,
      "max": [
        1.0,
        0.9999685287475586,
        0.34805727005004883
      ],
      "min": [
        -0.9994964599609375,
        -0.9994650483131409,
        -1.0
      ],
      "type": "VEC3"
    },
    {
      "bufferView": 1,
      "byteOffset": 7339920,
      "componentType": 5126,
      "count": 65535,
      "max": [
        0.9960784316062927,
        0.9882352948188782,
        0.9764705896377563,
        1.0
      ],
      "min": [
        0.0784313753247261,
        0.11372549086809158,
        0.10588235408067703,
        1.0
      ],
      "type": "VEC4"
    },
    {
      "bufferView": 0,
      "byteOffset": 12582720,
      "componentType": 5126,
      "count": 65535,
      "max": [
        8.037453651428223,
        1.324664831161499,
        25.664806365966797
      ],
      "min": [
        -2.943199872970581,
        -2.0525078773498535,
        14.22568416595459
      ],
      "type": "VEC3"
    },
    {
      "bufferView": 0,
      "byteOffset": 13369140,
      "componentType": 5126,
      "count": 65535,
      "max": [
        1.0,
        0.9999685287475586,
        0.4420425295829773
      ],
      "min": [
        -0.9998740553855896,
        -1.0,
        -1.0
      ],
      "type": "VEC3"
    },
    {
      "bufferView": 1,
      "byteOffset": 8388480,
      "componentType": 5126,
      "count": 65535,
      "max": [
        0.9725490212440491,
        0.9764705896377563,
        0.9607843160629272,
        1.0
      ],
      "min": [
        0.06666667014360428,
        0.10980392247438431,
        0.08627451211214066,
        1.0
      ],
      "type": "VEC4"
    },
    {
      "bufferView": 0,
      "byteOffset": 14155560,
      "componentType": 5126,
      "count": 9970,
      "max": [
        9.742183685302734,
        0.6498759984970093,
        27.447023391723633
      ],
      "min": [
        -1.761512279510498,
        -0.8127044439315796,
        20.837968826293945
      ],
      "type": "VEC3"
    },
    {
      "bufferView": 0,
      "byteOffset": 14275200,
      "componentType": 5126,
      "count": 9970,
      "max": [
        0.9859037399291992,
        0.9989309310913086,
        0.26110830903053284
      ],
      "min": [
        -0.9998425841331482,
        -1.0,
        -0.9999685287475586
      ],
      "type": "VEC3"
    },
    {
      "bufferView": 1,
      "byteOffset": 9437040,
      "componentType": 5126,
      "count": 9970,
      "max": [
        0.7764706015586853,
        0.7764706015586853,
        0.7803921699523926,
        1.0
      ],
      "min": [
        0.10588235408067703,
        0.13333334028720856,
        0.125490203499794,
        1.0
      ],
      "type": "VEC4"
    }
  ],
  "asset": {
    "extras": {
      "author": "Patrick (https://sketchfab.com/patrick-)",
      "license": "CC-BY-4.0 (http://creativecommons.org/licenses/by/4.0/)",
      "source": "https://sketchfab.com/3d-models/apollo-17-1972-67b69963f2094ea7a9c3e1024b54dc75",
      "title": "Apollo 17, 1972"
    },
    "generator": "Sketchfab-12.66.0",
    "version": "2.0"
  },
  "bufferViews": [
    {
      "buffer": 0,
      "byteLength": 14394840,
      "byteStride": 12,
      "name": "floatBufferViews",
      "target": 34962
    },
    {
      "buffer": 0,
      "byteLength": 9596560,
      "byteOffset": 14394840,
      "byteStride": 16,
      "name": "floatBufferViews",
      "target": 34962
    }
  ],
  "buffers": [
    {
      "byteLength": 23991400,
      "uri": "scene.bin"
    }
  ],
  "extensionsUsed": [
    "KHR_materials_unlit"
  ],
  "materials": [
    {
      "doubleSided": true,
      "extensions": {
        "KHR_materials_unlit": {}
      },
      "name": "Scene_-_Root",
      "pbrMetallicRoughness": {
        "baseColorFactor": [
          0.5,
          0.5,
          0.5,
          1.0
        ],
        "metallicFactor": 0.0
      }
    }
  ],
  "meshes": [
    {
      "name": "Object_0",
      "primitives": [
        {
          "attributes": {
            "COLOR_0": 2,
            "NORMAL": 1,
            "POSITION": 0
          },
          "material": 0,
          "mode": 0
        }
      ]
    },
    {
      "name": "Object_1",
      "primitives": [
        {
          "attributes": {
            "COLOR_0": 5,
            "NORMAL": 4,
            "POSITION": 3
          },
          "material": 0,
          "mode": 0
        }
      ]
    },
    {
      "name": "Object_2",
      "primitives": [
        {
          "attributes": {
            "COLOR_0": 8,
            "NORMAL": 7,
            "POSITION": 6
          },
          "material": 0,
          "mode": 0
        }
      ]
    },
    {
      "name": "Object_3",
      "primitives": [
        {
          "attributes": {
            "COLOR_0": 11,
            "NORMAL": 10,
            "POSITION": 9
          },
          "material": 0,
          "mode": 0
        }
      ]
    },
    {
      "name": "Object_4",
      "primitives": [
        {
          "attributes": {
            "COLOR_0": 14,
            "NORMAL": 13,
            "POSITION": 12
          },
          "material": 0,
          "mode": 0
        }
      ]
    },
    {
      "name": "Object_5",
      "primitives": [
        {
          "attributes": {
            "COLOR_0": 17,
            "NORMAL": 16,
            "POSITION": 15
          },
          "material": 0,
          "mode": 0
        }
      ]
    },
    {
      "name": "Object_6",
      "primitives": [
        {
          "attributes": {
            "COLOR_0": 20,
            "NORMAL": 19,
            "POSITION": 18
          },
          "material": 0,
          "mode": 0
        }
      ]
    },
    {
      "name": "Object_7",
      "primitives": [
        {
          "attributes": {
            "COLOR_0": 23,
            "NORMAL": 22,
            "POSITION": 21
          },
          "material": 0,
          "mode": 0
        }
      ]
    },
    {
      "name": "Object_8",
      "primitives": [
        {
          "attributes": {
            "COLOR_0": 26,
            "NORMAL": 25,
            "POSITION": 24
          },
          "material": 0,
          "mode": 0
        }
      ]
    },
    {
      "name": "Object_9",
      "primitives": [
        {
          "attributes": {
            "COLOR_0": 29,
            "NORMAL": 28,
            "POSITION": 27
          },
          "material": 0,
          "mode": 0
        }
      ]
    }
  ],
  "nodes": [
    {
      "children": [
        1
      ],
      "matrix": [
        0.9995394349098206,
        0.029617585241794586,
        0.006614721380174167,
        0.0,
        0.028628632426261902,
        -0.992572009563446,
        0.11824231594800927,
        0.0,
        0.01006763894110918,
        -0.11799848079681374,
        -0.9929627180099487,
        0.0,
        -0.15907321870326996,
        29.41889572143554,
        36.87862396240235,
        1.0
      ],
      "name": "Sketchfab_model"
    },
    {
      "children": [
        2,
        3,
        4,
        5,
        6,
        7,
        8,
        9,
        10,
        11
      ],
      "name": "Geode"
    },
    {
      "mesh": 0,
      "name": "Object_2"
    },
    {
      "mesh": 1,
      "name": "Object_3"
    },
    {
      "mesh": 2,
      "name": "Object_4"
    },
    {
      "mesh": 3,
      "name": "Object_5"
    },
    {
      "mesh": 4,
      "name": "Object_6"
    },
    {
      "mesh": 5,
      "name": "Object_7"
    },
    {
      "mesh": 6,
      "name": "Object_8"
    },
    {
      "mesh": 7,
      "name": "Object_9"
    },
    {
      "mesh": 8,
      "name": "Object_10"
    },
    {
      "mesh": 9,
      "name": "Object_11"
    }
  ],
  "scene": 0,
  "scenes": [
    {
      "name": "Sketchfab_Scene",
      "nodes": [
        0
      ]
    }
  ]
}
